<svg width="17" height="17" viewBox="0 0 17 17" fill="none" xmlns="http://www.w3.org/2000/svg">
<path fill-rule="evenodd" clip-rule="evenodd" d="M15.6857 0.0795626C15.7626 0.127157 15.8262 0.193617 15.8702 0.272644C15.9143 0.35167 15.9375 0.440642 15.9375 0.531125V16.4686C15.9375 16.6095 15.8815 16.7446 15.7819 16.8443C15.6823 16.9439 15.5471 16.9999 15.4062 16.9999H12.2188C12.0779 16.9999 11.9427 16.9439 11.8431 16.8443C11.7435 16.7446 11.6875 16.6095 11.6875 16.4686V14.8749H10.625V16.4686C10.625 16.6095 10.569 16.7446 10.4694 16.8443C10.3698 16.9439 10.2346 16.9999 10.0938 16.9999H0.53125C0.390354 16.9999 0.255228 16.9439 0.1556 16.8443C0.0559708 16.7446 0 16.6095 0 16.4686V10.6249C8.46247e-05 10.5134 0.0352199 10.4048 0.100433 10.3144C0.165646 10.2241 0.257633 10.1565 0.363375 10.1213L6.375 8.11737V4.78113C6.375 4.68255 6.40243 4.58592 6.45422 4.50204C6.50601 4.41816 6.58012 4.35035 6.66825 4.30619L15.1683 0.0561876C15.2493 0.0156063 15.3394 -0.00355024 15.43 0.000541323C15.5206 0.00463289 15.6086 0.0318364 15.6857 0.0795626ZM6.375 9.23725L1.0625 11.0074V15.9374H6.375V9.23725ZM7.4375 15.9374H9.5625V14.3436C9.5625 14.2027 9.61847 14.0676 9.7181 13.968C9.81773 13.8683 9.95285 13.8124 10.0938 13.8124H12.2188C12.3596 13.8124 12.4948 13.8683 12.5944 13.968C12.694 14.0676 12.75 14.2027 12.75 14.3436V15.9374H14.875V1.39069L7.4375 5.10944V15.9374Z" fill="#676769"/>
<path d="M2.125 11.6875H3.1875V12.75H2.125V11.6875ZM4.25 11.6875H5.3125V12.75H4.25V11.6875ZM2.125 13.8125H3.1875V14.875H2.125V13.8125ZM4.25 13.8125H5.3125V14.875H4.25V13.8125ZM8.5 9.5625H9.5625V10.625H8.5V9.5625ZM10.625 9.5625H11.6875V10.625H10.625V9.5625ZM8.5 11.6875H9.5625V12.75H8.5V11.6875ZM10.625 11.6875H11.6875V12.75H10.625V11.6875ZM12.75 9.5625H13.8125V10.625H12.75V9.5625ZM12.75 11.6875H13.8125V12.75H12.75V11.6875ZM8.5 7.4375H9.5625V8.5H8.5V7.4375ZM10.625 7.4375H11.6875V8.5H10.625V7.4375ZM12.75 7.4375H13.8125V8.5H12.75V7.4375ZM8.5 5.3125H9.5625V6.375H8.5V5.3125ZM10.625 5.3125H11.6875V6.375H10.625V5.3125ZM12.75 5.3125H13.8125V6.375H12.75V5.3125ZM12.75 3.1875H13.8125V4.25H12.75V3.1875Z" fill="#676769"/>
</svg>
