<svg width="15" height="15" viewBox="0 0 15 15" fill="none" xmlns="http://www.w3.org/2000/svg">
<path d="M11.94 3.72187C12.004 3.65659 12.0803 3.60473 12.1646 3.56933C12.2489 3.53392 12.3394 3.51569 12.4308 3.51569C12.5222 3.51569 12.6127 3.53392 12.6969 3.56933C12.7812 3.60473 12.8576 3.65659 12.9216 3.72187C13.1897 3.99281 13.1934 4.43062 12.9309 4.70625L7.3875 11.2594C7.32456 11.3285 7.24818 11.384 7.16304 11.4226C7.0779 11.4612 6.98578 11.482 6.89232 11.4838C6.79886 11.4855 6.70602 11.4682 6.61949 11.4328C6.53296 11.3975 6.45455 11.3448 6.38906 11.2781L3.01593 7.86C2.88584 7.72733 2.81297 7.54893 2.81297 7.36312C2.81297 7.17732 2.88584 6.99892 3.01593 6.86625C3.07991 6.80097 3.15628 6.74911 3.24055 6.7137C3.32482 6.6783 3.41531 6.66006 3.50672 6.66006C3.59812 6.66006 3.68861 6.6783 3.77288 6.7137C3.85715 6.74911 3.93352 6.80097 3.9975 6.86625L6.85875 9.76594L11.9212 3.7425C11.9271 3.73525 11.9333 3.72837 11.94 3.72187Z" fill="#323639"/>
</svg>
