<svg width="348" height="63" viewBox="0 0 348 63" fill="none" xmlns="http://www.w3.org/2000/svg">
<g filter="url(#filter0_d_20_393)">
<rect x="4" width="340" height="55" rx="2" fill="#F7E368"/>
<path d="M46.375 27.5C46.3792 28.8199 46.0065 30.1219 45.2875 31.3C44.4349 32.7118 43.1243 33.8992 41.5023 34.7293C39.8804 35.5594 38.0112 35.9994 36.1042 36C34.5093 36.0035 32.9361 35.6951 31.5125 35.1L24.625 37L26.9208 31.3C26.2018 30.1219 25.8292 28.8199 25.8333 27.5C25.8341 25.9218 26.3657 24.3749 27.3688 23.0326C28.3718 21.6903 29.8066 20.6056 31.5125 19.9C32.9361 19.305 34.5093 18.9966 36.1042 19H36.7083C39.2269 19.115 41.6058 19.9948 43.3894 21.4709C45.173 22.947 46.2361 24.9157 46.375 27V27.5Z" fill="black" stroke="black" stroke-width="2" stroke-linecap="round" stroke-linejoin="round"/>
<path d="M112.874 19.56C112.874 25.56 110.274 29.84 104.954 32.6L103.514 30.94C105.994 29.8 108.034 27.96 109.254 25.62L104.314 26.16C104.214 25.48 104.114 24.82 103.994 24.14L110.034 23.7C110.214 23 110.354 22.26 110.414 21.5H104.874V19.56H112.874ZM117.674 17.76V24.6H120.174V26.54H117.674V35.58H115.354V17.76H117.674ZM130.179 19.56C130.179 25.56 127.579 29.84 122.259 32.6L120.819 30.94C123.299 29.8 125.339 27.96 126.559 25.62L121.619 26.16C121.519 25.48 121.419 24.82 121.299 24.14L127.339 23.7C127.519 23 127.659 22.26 127.719 21.5H122.179V19.56H130.179ZM134.979 17.76V24.6H137.479V26.54H134.979V35.58H132.659V17.76H134.979ZM154.464 33.36H138.364V31.5H145.224V28.66C141.964 28.28 139.884 26.38 139.884 23.78C139.884 20.9 142.484 18.88 146.424 18.88C150.384 18.88 152.964 20.9 152.964 23.78C152.964 26.4 150.864 28.32 147.564 28.66V31.5H154.464V33.36ZM150.604 23.8C150.604 22.02 148.964 20.8 146.424 20.8C143.904 20.8 142.264 22.02 142.264 23.8C142.264 25.6 143.904 26.8 146.424 26.8C148.944 26.8 150.604 25.6 150.604 23.8ZM170.248 28.72H164.848V31.5H171.768V33.36H155.668V31.5H162.508V28.72H157.728V22.82H167.408V20.76H157.628V18.9H169.728V24.68H160.048V26.84H170.248V28.72ZM192.967 35.58H190.627V17.76H192.967V35.58ZM189.287 29.78L187.927 31.54C186.467 30.64 184.607 28.48 184.007 26.62C183.427 28.66 181.587 30.92 179.747 31.92L178.327 30.2C181.207 28.34 182.747 25.52 182.747 21.98V19.26H185.167V21.86C185.167 25.38 186.587 28.04 189.287 29.78ZM195.752 20.8V18.9H205.132V20.8H201.732C201.932 23.34 203.732 25.04 205.712 25.68L204.432 27.54C203.052 27 201.332 25.66 200.552 24.02C200.032 25.74 198.152 27.44 196.432 28.02L195.052 26.2C197.532 25.3 199.212 23.38 199.332 20.8H195.752ZM197.772 29.04H209.492V35.6H207.132V30.9H197.772V29.04ZM212.012 23.9H209.472V28.14H207.112V17.76H209.472V21.98H212.012V23.9ZM223.096 23.86H212.756V22H223.096V23.86ZM215.256 20.76V18.92H220.756V20.76H215.256ZM226.776 17.76V24.98H229.256V26.92H226.776V35.58H224.416V17.76H226.776ZM213.636 28.32C213.636 26.14 215.376 24.48 217.936 24.48C220.496 24.48 222.236 26.08 222.236 28.32C222.236 30.5 220.496 32.16 217.936 32.16C215.376 32.16 213.636 30.58 213.636 28.32ZM215.916 28.32C215.916 29.48 216.756 30.26 217.936 30.26C219.236 30.26 219.956 29.48 219.956 28.32C219.956 27.14 219.096 26.36 217.936 26.36C216.776 26.36 215.916 27.14 215.916 28.32ZM244.881 35.58H242.541V17.76H244.881V35.58ZM239.401 19.62C239.261 25 236.881 29.4 231.441 32.36L230.001 30.6C233.901 28.82 236.561 25.1 236.881 21.56H231.081V19.62H239.401Z" fill="black"/>
</g>
<defs>
<filter id="filter0_d_20_393" x="0" y="0" width="348" height="63" filterUnits="userSpaceOnUse" color-interpolation-filters="sRGB">
<feFlood flood-opacity="0" result="BackgroundImageFix"/>
<feColorMatrix in="SourceAlpha" type="matrix" values="0 0 0 0 0 0 0 0 0 0 0 0 0 0 0 0 0 0 127 0" result="hardAlpha"/>
<feOffset dy="4"/>
<feGaussianBlur stdDeviation="2"/>
<feComposite in2="hardAlpha" operator="out"/>
<feColorMatrix type="matrix" values="0 0 0 0 0 0 0 0 0 0 0 0 0 0 0 0 0 0 0.25 0"/>
<feBlend mode="normal" in2="BackgroundImageFix" result="effect1_dropShadow_20_393"/>
<feBlend mode="normal" in="SourceGraphic" in2="effect1_dropShadow_20_393" result="shape"/>
</filter>
</defs>
</svg>
