<svg width="10" height="19" viewBox="0 0 10 19" fill="none" xmlns="http://www.w3.org/2000/svg">
<path fill-rule="evenodd" clip-rule="evenodd" d="M4.77875 2.90376C4.80778 2.87466 4.84226 2.85157 4.88023 2.83581C4.91819 2.82006 4.95889 2.81195 5 2.81195C5.0411 2.81195 5.0818 2.82006 5.11977 2.83581C5.15773 2.85157 5.19222 2.87466 5.22125 2.90376L8.97125 6.65376C9.02993 6.71244 9.06289 6.79202 9.06289 6.87501C9.06289 6.95799 9.02993 7.03758 8.97125 7.09626C8.91257 7.15494 8.83298 7.1879 8.75 7.1879C8.66701 7.1879 8.58743 7.15494 8.52875 7.09626L5 3.56688L1.47125 7.09626C1.41257 7.15494 1.33298 7.1879 1.25 7.1879C1.16701 7.1879 1.08743 7.15494 1.02875 7.09626C0.970069 7.03758 0.937103 6.95799 0.937103 6.87501C0.937103 6.79202 0.970069 6.71244 1.02875 6.65376L4.77875 2.90376Z" fill="white"/>
<path fill-rule="evenodd" clip-rule="evenodd" d="M1.02874 11.9038C1.05777 11.8747 1.09226 11.8516 1.13022 11.8358C1.16819 11.8201 1.20889 11.812 1.24999 11.812C1.2911 11.812 1.3318 11.8201 1.36977 11.8358C1.40773 11.8516 1.44222 11.8747 1.47124 11.9038L4.99999 15.4331L8.52874 11.9038C8.5578 11.8747 8.59229 11.8517 8.63025 11.8359C8.66822 11.8202 8.7089 11.8121 8.74999 11.8121C8.79108 11.8121 8.83177 11.8202 8.86973 11.8359C8.9077 11.8517 8.94219 11.8747 8.97124 11.9038C9.0003 11.9328 9.02335 11.9673 9.03907 12.0053C9.0548 12.0432 9.06289 12.0839 9.06289 12.125C9.06289 12.1661 9.0548 12.2068 9.03907 12.2447C9.02335 12.2827 9.0003 12.3172 8.97124 12.3463L5.22124 16.0963C5.19222 16.1254 5.15773 16.1484 5.11976 16.1642C5.0818 16.18 5.0411 16.1881 4.99999 16.1881C4.95889 16.1881 4.91819 16.18 4.88022 16.1642C4.84226 16.1484 4.80777 16.1254 4.77874 16.0963L1.02874 12.3463C0.999642 12.3172 0.976553 12.2827 0.960799 12.2448C0.945045 12.2068 0.936935 12.1661 0.936935 12.125C0.936935 12.0839 0.945045 12.0432 0.960799 12.0052C0.976553 11.9673 0.999642 11.9328 1.02874 11.9038Z" fill="white"/>
</svg>
